<svg width="43" height="43" viewBox="0 0 43 43" fill="none" xmlns="http://www.w3.org/2000/svg">
<mask id="mask0_2_167" style="mask-type:alpha" maskUnits="userSpaceOnUse" x="0" y="0" width="43" height="43">
<rect x="0.5" y="0.565704" width="42" height="42" fill="#D9D9D9"/>
</mask>
<g mask="url(#mask0_2_167)">
<path d="M21.5 21.0272C19.8156 21.0272 18.3737 20.4275 17.1742 19.228C15.9747 18.0285 15.375 16.5866 15.375 14.9023C15.375 13.2179 15.9747 11.776 17.1742 10.5765C18.3737 9.37707 19.8156 8.77733 21.5 8.77733C23.1843 8.77733 24.6262 9.37707 25.8257 10.5765C27.0252 11.776 27.6249 13.2179 27.6249 14.9023C27.6249 16.5866 27.0252 18.0285 25.8257 19.228C24.6262 20.4275 23.1843 21.0272 21.5 21.0272ZM8.375 34.3541V30.4638C8.375 29.6067 8.60778 28.8131 9.07334 28.0828C9.53887 27.3525 10.1609 26.7911 10.9394 26.3984C12.6692 25.5504 14.4142 24.9143 16.1743 24.4903C17.9344 24.0662 19.7096 23.8542 21.5 23.8542C23.2903 23.8542 25.0656 24.0662 26.8256 24.4903C28.5857 24.9143 30.3307 25.5504 32.0605 26.3984C32.839 26.7911 33.461 27.3525 33.9266 28.0828C34.3921 28.8131 34.6249 29.6067 34.6249 30.4638V34.3541H8.375ZM11 31.7291H32V30.4638C32 30.1093 31.8973 29.7812 31.692 29.4794C31.4867 29.1776 31.208 28.9314 30.8557 28.7407C29.348 27.9981 27.8107 27.4355 26.2437 27.0529C24.6767 26.6704 23.0954 26.4791 21.5 26.4791C19.9045 26.4791 18.3232 26.6704 16.7562 27.0529C15.1892 27.4355 13.6519 27.9981 12.1442 28.7407C11.7919 28.9314 11.5132 29.1776 11.3079 29.4794C11.1026 29.7812 11 30.1093 11 30.4638V31.7291ZM21.5 18.4023C22.4625 18.4023 23.2864 18.0596 23.9718 17.3742C24.6572 16.6887 25 15.8648 25 14.9023C25 13.9398 24.6572 13.1158 23.9718 12.4304C23.2864 11.745 22.4625 11.4023 21.5 11.4023C20.5375 11.4023 19.7135 11.745 19.0281 12.4304C18.3427 13.1158 18 13.9398 18 14.9023C18 15.8648 18.3427 16.6887 19.0281 17.3742C19.7135 18.0596 20.5375 18.4023 21.5 18.4023Z" fill="white"/>
</g>
</svg>
